<?xml version="1.0" encoding="UTF-8"?><svg id="Layer_2" xmlns="http://www.w3.org/2000/svg" viewBox="0 0 870.25 481.43"><defs><style>.cls-1{stroke:#fff;stroke-miterlimit:10;}.cls-1,.cls-2{fill:#fff;}.cls-2{stroke-width:0px;}</style></defs><g id="Layer_1-2"><path class="cls-1" d="m140.12,262.7c-2.85,1.37-5.34,2.67-7.81,3.96-14.42,8.06-29.3,15.83-45.47,21.13-11.05,3.45-22.34,5.78-33.95,4.63-2.41-.29-5.28-.87-7.77-1.54-14.49-3.69-23.29-14.03-24.72-28.64-.96-10.39.86-20.58,3.15-30.46,3.62-12.91,8.6-24.91,15.24-36.48,24.55-42.71,58.42-76.35,101.31-100.48,10.89-6.16,22.54-10.52,34.74-12.25,7.68-.8,15.14-.76,22.31,1.68,4.98,1.33,8.99,3.64,10.82,8.76.76,1.8.77,3.76.41,5.8.15.75-1.12,2.19-2.32,2.05-.75.15-1.74-.82-2.64-1.42-.38.08-.53-.67-.61-1.05-.78-5.72-5.47-7.5-10.75-8.38-12.14-1.81-23.81.59-35.01,5.24-13.76,5.58-26.3,13.26-38.23,21.99-28.51,21.56-52.63,47.31-70.99,78.15-8.73,14.74-15.65,30.68-18.34,48.1-.87,5.28-1.29,10.86-.89,16.65.22,12.51,7.8,20.75,19.72,23.4,7.39,1.62,15.15,1.2,22.3-.28,13.63-2.41,26.33-7.38,38.81-13.48,23.06-11.81,45.15-24.59,66.92-38.88,1.05-.61,2.02-1.59,3.53-1.9,1.8-.76,3.84-.4,4.23,1.48.69,1.43.7,3.39-.2,4.75-.52,1.28-1.95,1.97-3.3,3.03-3.68,3.11-7.8,5.92-11.1,8.95-49.62,46.69-94.02,97.79-130.46,155.11-8.37,12.7-15.3,26.68-22.76,39.99-2.54,4.83-4.24,9.89-5.95,14.95-1.04,2.57-1.63,5.44-1.84,8.22-.42,5.58,1.55,7.53,6.97,7.19,7.38-.34,14.3-2.94,20.76-5.84,19.01-8.62,36.44-19.27,53.63-31.04,41.5-28.94,83.31-58.33,124.81-87.27,22.89-16.48,46.23-32.66,69.04-49.51,9.61-6.68,18.53-14.8,27.53-22.53,1.05-.61,1.65-1.52,2.7-2.12,1.13-.23,2.71-.17,3.24.51.53.67.84,2.18.62,3.01-.89,1.36-1.79,2.72-3.14,3.79-8.32,7.2-16.95,14.86-25.8,21.39-60.79,43.89-121.95,87.86-182.81,131.37-18.76,13.66-38.5,26.36-59.55,36.57-8.86,4.57-18.64,8.54-28.95,9.88-1.96.02-4.29.1-6.33-.26-6.49-1.02-10.88-5.21-10.69-11.92-.18-4.67.77-9.57,2.26-13.8,2.45-7.17,5.35-14.04,8.62-20.99,15.65-30.68,34.86-59.34,55.95-86.43,21.99-28.46,45.12-55.18,70-81.09,1.35-1.06,2.32-2.05,3.3-3.03q-.46-.3-.53-.67Z"/><path class="cls-1" d="m367.15,292.85c.23,1.13-.29,2.41-.81,3.7-8.31,22.5-16.7,44.62-25.09,66.74-1.49,4.23-3.72,8.61-5.66,12.54-1.42,2.65-3.21,5.37-5.08,7.71-7.71,8.25-18.95,7.04-24.8-2.35-2.81-4.13-3.82-9.02-4.83-13.91-1.73-12.2-1.41-24.03-.73-35.94,2.24-31.05,13.59-156.95,17.86-187.64.8-5.65.77-11.53,1.11-17.48-.15-.75-.39-1.88-.93-4.52-1.42,2.64-2.32,4-3.21,5.37-.97.98-1.95,1.97-3.23,1.45-2.11-.74-2.42-2.25-1.98-3.91,1.41-4.6,4.25-7.94,8.53-9.99,2.1-1.22,5.05-.25,6.04,2.68.92,2.56,1.09,5.27,1.63,7.9.5,8.14-.59,16.2-1.3,24.19-3.23,28.12-13.92,151.53-16.7,179.95-1.28,12.82-1.36,25.78.9,38.65.54,2.63,1.54,5.57,2.46,8.12,3.27,6.39,9.76,7.41,14.4,1.35,1.57-1.9,3.37-4.62,4.41-7.19,2.53-4.83,4.32-9.52,6.4-14.65,8.03-20.09,16.05-40.17,24.08-60.26.44-1.66,1.34-3.02,2.24-4.39.3-.45,1.73-1.14,2.56-.92.91.6,1.52,1.65,1.75,2.78Z"/><path class="cls-1" d="m363.45,212.03c-1.28-.52-2.35-1.87-2.58-3-.48-4.22,7-15.56,10.98-17.17.38-.08,1.13-.23,2.64-.54,1.66.44,3.77,1.18,6.34,2.22,1.36.9,2.05,2.33,1.15,3.69-.67.53-2.18.84-3.31,1.07-1.58-.07-3.77-1.19-4.82-.58-2.1,1.21-3.82,4.32-4.94,6.51l-1.94,3.93c-.22.83-.9,1.36-1.12,2.19-.22.83-1.95,1.97-2.4,1.67Zm17.68,211.7c-3.92.03-5.67-2.75-6.66-5.69-1.76-4.74-3.06-9.17-4.07-14.07-3.17-15.43-4.47-31.24-5.01-47.22-.94-33.15.38-66.76,2.15-100.07.72-6.03,1.44-12.07,2.54-18.18.29-2.41,1.78-4.68,2.98-6.5.82-1.73,2.62-2.5,4.36-1.68,2.11.74,3.41,3.22,3.04,5.26.15.75-.82,1.74-1.2,1.81-3.92.02-4.05,3.19-4.34,5.6-.49,7.16-1.65,14.85-1.76,21.93-.84,24.5-1.76,48.61-1.85,72.95-.46,26.37,1.61,45.95,6.96,71.92.46,2.26,1.23,4.06,2.07,6.24.38-.08.75-.15,1.58.07.66-2.49,2.16-4.76,2.82-7.25,5.56-16.83,10.66-33.96,16.59-50.88,11.04-34.04,25.95-75.94,44.23-107.16,1.49-2.27,3.9-3.94,5.92-5.53,1.35-1.06,2.85-1.37,3.62.43.15.75-.29,2.41-.97,2.94-13.43,11-35.81,77.58-41.66,94.87-6.9,19.86-12.96,39.93-19.48,59.71-1.7,5.06-3.41,10.11-5.57,14.87-.96,2.94-2.76,5.67-6.3,5.61Z"/><path class="cls-1" d="m599.93,301.43c2.41,13.62,4.82,27.25,6.78,40.57,2.11.74,2.94.96,4.23,1.48q3.4,1.26,3.34,4.8c-.29,2.42.18,4.67-.19,6.71-.06,3.54-1.63,5.43-3.89,5.9-2.63.54-4.82-.58-6.27-3.81-1.68-4.36-3.44-9.1-4.45-13.99-2.56-12.42-4.44-25.37-6.62-37.87-.31-1.5-.7-3.38-.71-5.34-2.04-.37-3.32-.89-4.98-1.33-12.15-3.78-17.1-12.57-13.32-24.72,2.07-7.09,5.88-13.37,10.14-19.34,1.87-2.35,2.61-4.46,1.99-7.47-.95-8.43-1.53-16.95-2.48-25.38-.23-1.13-.46-2.26-.78-3.76-3.31,1.07-6.16,2.44-8.72,3.36-2.56.92-4.82,1.38-7.07,1.84-4.67.18-7.25-2.82-6.22-7.35.66-2.49,2-5.51,3.5-7.78,4.11-6.73,8.67-13.16,13.23-19.59,1.49-2.27,2.16-4.76,1.92-7.85-2.11-27.42-3.77-54.53-5.81-81.57-1.15-17.03-2.3-34.05-3.53-51.44-1.5.31-2.26.46-2.93,1-21.94,11.58-43.42,23.45-63,38.85-5.48,3.87-10.35,8.8-14.84,13.65-2.32,2.05-4.12,4.77-5.53,7.42-1.94,3.93-1.33,4.98,2.82,6.09.83.22,1.58.07,2.49.66.91.6,1.97,1.95,2.13,2.7-.14,1.21-1.42,2.65-2.55,2.88-3.84.4-7.54-.41-10.49-3.34-2.58-3-2.9-6.46-1.18-9.56,1.86-4.31,4.47-8.77,7.32-12.1,5.17-5.38,10.79-10.46,16.87-15.24,19.66-15.03,41.06-27.28,63-38.85,21.18-11.42,43.05-21.41,65.61-29.98,13.16-4.67,26.4-8.96,40.17-10.63,5.35-.71,10.47-.58,15.97-.54,1.58.06,3.24.51,4.9.95,14.11,3.77,20.04,13.52,15.82,27.34-2.59,8.38-6.54,15.86-11.48,22.37-8.82,12.41-17.72,24.44-27.07,36.17-18.86,22.71-37.8,45.04-56.66,67.75-7.18,8.93-14.29,18.24-21.39,27.55-1.49,2.27-2.53,4.84-1.99,7.47.63,4.97.81,9.64,1.59,15.36,2.86-1.37,5.33-2.67,7.51-3.51,27.65-14.32,55.37-28.26,83.86-40.4,23.75-10.38,48.19-19.33,73.48-24.14,9.11-1.48,18.37-2.21,27.57-1.36,5.95.34,12.14,1.82,17.43,4.65,8.92,5.23,13.26,12.96,12.63,23.29-.49,7.16-2.71,13.5-6.22,19.32-4.77,9.22-11.36,17.24-18.47,24.59-21.65,22.5-46.94,40.65-73.9,56.4-20.05,11.19-41.1,21.4-63.21,28.31-14.74,4.6-30.09,8.15-46.14,8.32-1.21-.15-2.34.09-4.22.47Zm-19.04-103.95c-4.05,3.19-9.95,12.64-10.98,17.17,4.36-1.69,8.27-3.66,12.25-5.27-.55-4.59-.87-8.06-1.27-11.9Zm5.9-22.79c1.57-1.89,2.25-2.42,2.84-3.33,19.08-23.54,38.24-46.7,56.95-70.16,12.87-15.59,25.67-31.57,38.46-47.53,4.64-6.05,8.29-13.08,11.64-19.66,2.02-3.55,3.12-7.7,3.85-11.78.87-5.28-1.18-9.56-6.24-11.27-3.85-1.56-8-2.67-12-3.02-11.16-.84-21.99,1.78-32.37,4.7-23.62,7.22-45.94,16.91-67.58,28.03q-4.66,2.13-4.11,6.73c.97,12.35,2.32,24.63,2.92,37.06,1.79,23.95,2.91,48.43,4.32,72.46.33,5.42.74,11.22,1.3,17.77Zm.94,86.49c-4.12,4.77-6.87,10.44-8.2,15.42-2.14,8.68,2.19,14.45,11.47,15.68-.88-10.02-2.22-20.33-3.26-31.1Zm11.41,32.56c1.21.14,2.04.37,2.41.29.83.22,1.58.07,2.41.29,15.97-.54,30.95-4.02,45.61-8.99,19.1-6.29,36.99-14.67,54.27-24.11,28.47-16.06,54.43-34.74,77.06-58.22,6.82-6.9,13.11-14.46,18.03-22.93,2.54-4.83,4.62-9.97,5.04-15.55,1.09-8.07-2.11-14.08-9.44-17.28-3.85-1.56-7.55-2.37-11.62-3.1-7.31-1.24-15-.44-22.6.73-21.68,3.28-41.84,10.18-62.13,18.28-35.94,14.06-70.27,32.11-105.13,49.49-1.81.77-2.7,2.12-2.69,4.08,1.33,8.36,1.9,16.87,2.78,24.92,5.51,2,5.67,2.76,2.68,7.29-1.27,1.44-1.72,3.1-1.33,4.98.86,6.1,1.35,12.27,1.84,18.45,1.02,6.85,2.11,14.08,2.83,21.39Z"/><path class="cls-1" d="m864.18,251.35c-3.97,3.56-9.4,3.9-13.56.83-5.07-3.66-6.61-9.23-3.77-14.52,1.64-3.48,3.65-7.03,8.09-8.33,3.84-.4,6.72,2.15,9.14,4.39.61,1.05,1.3,2.48,1.82,3.15,4.71,5.7,2.17,10.54-1.73,14.48Z"/><path class="cls-2" d="m208.53,94.1c-9.46-10.67-24.82-13.56-38.35-11.03-15.57,2.91-29.38,12.18-42.09,21.18-24.24,17.16-45.94,37.86-64.19,61.3-9.17,11.78-17.51,24.18-24.87,37.17-7.21,12.74-14.54,26.29-17.46,40.77-1.43,7.08-1.8,14.53.16,21.55,1.92,6.9,6.03,12.87,11.71,17.2,12.12,9.23,28.22,9.65,42.49,6.24,8.19-1.96,16.07-5.05,23.88-8.17,7.66-3.06,15.26-6.29,22.75-9.76,14.9-6.89,29.38-14.76,42.92-24.07,3.29-2.26,6.51-4.61,9.67-7.03l-3.64-4.71c-31.95,26.2-61.22,55.64-87.25,87.74-26.06,32.12-48.94,66.8-68.05,103.48-2.34,4.48-4.62,8.99-6.84,13.53-2.41,4.93-5,9.88-6.78,15.08-2.99,8.77-2.18,20.7,7.28,25.26,4.86,2.35,10.04,1.08,14.63-1.28,5.24-2.7,10.25-5.97,15.32-8.99,10.09-6.02,20.15-12.08,30.17-18.2,39.89-24.35,79.27-49.54,118.11-75.53,39.05-26.14,77.55-53.09,115.47-80.84,4.64-3.39,9.27-6.8,13.89-10.22,1.31-.97,1.94-2.59,1.08-4.1-.74-1.29-2.81-2.04-4.1-1.08-36.97,27.35-74.5,53.94-112.57,79.75s-76.24,50.56-115.11,74.67c-19.54,12.12-39.21,24.03-59,35.75-3.94,2.33-9.23,6.6-14.12,5.15-3.7-1.1-5.95-4.96-6.6-8.57-.9-4.98,1.14-10.25,3.16-14.71s4.4-9.25,6.69-13.83c17.98-35.92,39.52-70.1,64.22-101.78,24.8-31.8,52.72-61.17,83.28-87.48,3.75-3.23,7.54-6.4,11.36-9.54,2.6-2.14-.93-6.79-3.64-4.71-24.79,19.01-53.41,32.73-82.58,43.62-13.85,5.17-29.09,9.36-43.6,4.3-5.77-2.01-11.25-5.62-14.71-10.73-3.72-5.5-5.08-11.96-4.84-18.53.52-14.1,7.22-27.4,13.68-39.63,6.6-12.5,14.1-24.52,22.4-35.96,16.56-22.83,36.45-43.32,58.74-60.6,11.43-8.86,23.65-17.7,36.91-23.6,12.16-5.4,26.91-7.46,38.98-.64,2.73,1.54,5.09,3.49,7.17,5.83,2.57,2.9,6.8-1.36,4.24-4.24h0Z"/><path class="cls-2" d="m314.56,128.71c.37-2.01.7-5.13,2.69-6.14.6-.3,1.02-.42,1.42-.09.29.24.47,1.07.52,1.71.23,2.93-.31,6-.53,8.91-.25,3.34-.51,6.69-.76,10.03-1.02,13.37-2.03,26.75-3.05,40.12-2.03,26.75-4.07,53.5-6.1,80.25s-4.07,53.5-6.1,80.25c-.5,6.53-1.24,13.11-1.37,19.66-.11,5.86.7,12.07,4.15,16.97,3.12,4.43,7.97,7.75,13.58,7.5,6-.26,11.12-3.92,14.59-8.62s5.49-10.89,7.6-16.52c2.35-6.25,4.7-12.51,7.05-18.76,4.7-12.51,9.4-25.02,14.1-37.53,1.18-3.13,2.35-6.25,3.53-9.38.57-1.52-.63-3.29-2.1-3.69-1.68-.46-3.12.57-3.69,2.1-4.7,12.51-9.4,25.02-14.1,37.53-2.35,6.25-4.7,12.51-7.05,18.76-2.21,5.89-4.22,11.92-6.73,17.69-2.05,4.72-4.96,9.64-9.96,11.67-4.38,1.78-8.63.14-11.41-3.46-3.44-4.46-3.74-10.34-3.51-15.75.28-6.59.94-13.18,1.44-19.75,2.03-26.75,4.07-53.5,6.1-80.25,2.03-26.75,4.07-53.5,6.1-80.25,1.02-13.37,2.03-26.75,3.05-40.12.25-3.34.51-6.69.76-10.03.22-2.93.69-5.93.23-8.86-.43-2.74-2.17-5.35-4.97-6.1s-5.92.35-7.89,2.44c-2.09,2.21-2.83,5.22-3.37,8.11-.3,1.59.44,3.24,2.1,3.69,1.46.4,3.39-.49,3.69-2.1h0Z"/><path class="cls-2" d="m376.27,230.06c-3.78,4.36-5.74,9.75-6.85,15.35-1.23,6.19-1.9,12.52-2.63,18.78-1.51,13.09-2.46,26.24-2.86,39.41-.79,26.29.68,52.62,4.26,78.68.9,6.53,1.93,13.03,3.11,19.51.6,3.32,1.24,6.63,1.91,9.94.49,2.41,1.01,4.94,2.45,7,1.68,2.41,4.43,3.85,7.39,3.23,2.51-.52,4.42-2.51,5.61-4.7,1.31-2.39,1.86-4.99,2.45-7.62.7-3.12,1.42-6.23,2.16-9.35,5.86-24.72,12.92-49.21,22.39-72.8,4.82-12.01,10.47-23.61,16.37-35.12s12.35-24.1,18.53-36.15c1.51-2.94,3.01-5.88,4.52-8.82.74-1.44.38-3.26-1.08-4.1-1.34-.78-3.36-.37-4.1,1.08-5.99,11.69-11.98,23.37-17.97,35.06s-11.85,22.8-17.04,34.55c-10,22.64-17.6,46.23-23.81,70.17-1.57,6.04-3.05,12.11-4.46,18.19-.67,2.89-1.25,5.8-1.98,8.68-.23.91-.59,2.02-.87,2.61-.5,1.03-.84,1.63-1.54,2.24.41-.36-.27.17-.33.19.1-.06.47-.26-.06.01-.6.31.18.03-.18.03-.43,0,.51.27-.26-.03-.41-.16-.13.03-.46-.29-.23-.21-.33-.36-.62-.9-.39-.72-.66-1.65-.91-2.71-.34-1.46-.61-2.94-.9-4.41-1.25-6.3-2.37-12.63-3.36-18.98-3.88-24.97-5.66-50.28-5.42-75.55.12-12.69.76-25.38,1.91-38.02.58-6.4,1.29-12.79,2.15-19.16.71-5.31,1.36-10.76,3.25-15.81.8-2.14,1.96-4.22,3.46-5.95,1.06-1.22,1.2-3.04,0-4.24-1.08-1.08-3.18-1.23-4.24,0h0Z"/><path class="cls-2" d="m364.37,296.7c1.27-3.83,2.8-7.55,4.57-11.17.36-.73.2-1.62-.54-2.05-.66-.39-1.69-.19-2.05.54-1.89,3.85-3.52,7.82-4.88,11.89-.26.77.3,1.64,1.05,1.85.82.22,1.59-.28,1.85-1.05h0Z"/><path class="cls-2" d="m365.93,210.6c.09-.27.18-.55.29-.81-.22.53.11-.21.16-.32.27-.55.58-1.08.88-1.61.57-.98,1.17-1.95,1.67-2.98.34-.7.63-1.41.93-2.12.05-.11.36-.86.13-.32.11-.26.22-.52.34-.77.23-.51.47-1.01.76-1.49.14-.24.29-.47.44-.7.32-.5-.22.2.21-.27.17-.18.34-.37.52-.55.13-.12.69-.5.08-.11.18-.11.34-.23.52-.34.59-.34.08.06-.01-.03,0,0,.5-.16.53-.17.44-.11.41.08-.08-.02.32.07.78-.04,1.11-.03.19,0,.38.03.57.04.64.04-.62-.11-.02,0,.41.07.81.14,1.21.21,1.14.21,2.28.4,3.43.54,1.56.19,3.07-1.51,3-3-.08-1.79-1.32-2.8-3-3-.35-.04-.31-.04.11.02-.15-.02-.3-.05-.45-.07-.22-.04-.44-.07-.65-.11-.49-.09-.97-.18-1.46-.27-1.03-.18-2.08-.36-3.12-.36-2.44,0-4.71,1.02-6.37,2.81-.92,1-1.69,2.14-2.28,3.36-.36.74-.67,1.5-.99,2.26-.05.12-.34.8-.13.32-.15.34-.3.68-.46,1.02-1.17,2.47-2.81,4.65-3.67,7.27-.49,1.49.57,3.34,2.1,3.69,1.65.38,3.17-.5,3.69-2.1h0Z"/><path class="cls-2" d="m487.19,115.03c-2.73.93-4.94-1.94-5.43-4.52-.65-3.41,1.96-6.62,4.23-8.85,3.01-2.94,6.53-5.37,9.88-7.9,3.77-2.84,7.56-5.66,11.37-8.44,14.82-10.83,29.99-21.19,45.66-30.73,31.02-18.87,64.21-34.57,99.57-43.32,13.08-3.24,34.72-9.32,43.2,5.48,3.62,6.32,3.49,14.27,1.27,21.03-2.79,8.53-8.56,15.75-14.15,22.61-26.54,32.57-53.15,65.09-79.72,97.63-6.72,8.23-13.44,16.46-20.17,24.7-3.29,4.03-6.59,8.06-9.88,12.1s-6.54,7.6-9.4,11.67c-2.5,3.56-3.79,7.94-1.96,12.08,1.58,3.57,5.08,6.04,8.78,7.04,9.12,2.46,17.7-4.32,25.02-8.75,33.58-20.33,68.58-38.31,104.66-53.75,9.06-3.88,18.2-7.58,27.39-11.13s18.34-7.17,27.9-9.37c8.62-1.98,17.67-2.63,26.24-.1,6.69,1.98,13.26,5.82,17.29,11.65,10.31,14.91.31,33.63-9.52,45.88-11.13,13.88-25.28,24.89-39.96,34.77s-31.03,19.95-47.21,28.72-33.07,16.56-50.66,22.24c-8.64,2.79-17.44,5.06-26.37,6.7-8.84,1.62-17.99,2.82-27,2.68-7.53-.12-15.45-2.01-19.17-9.22-3.3-6.39-2.4-14.5.63-20.8,3.74-7.78,9.94-13.91,16-19.91,2.75-2.72-1.5-6.96-4.24-4.24-6.51,6.45-13.26,13.19-17.17,21.62-3.39,7.33-4.56,16.15-1.52,23.83,7.44,18.77,31.35,15.26,47.35,12.94,18.85-2.73,37.13-8.47,54.65-15.87,17.78-7.51,34.79-16.72,51.3-26.69s32.12-19.76,46.66-31.67c7.14-5.85,13.86-12.23,19.76-19.34,5.91-7.13,11.15-14.88,14.27-23.66,3.04-8.54,3.62-17.96-.06-26.4-3.17-7.29-9.47-12.94-16.56-16.34-17.97-8.61-37.7-3.09-55.37,3.47-19.02,7.07-37.78,14.87-56.24,23.31s-36.68,17.57-54.52,27.34c-8.96,4.91-17.83,9.98-26.61,15.21-4.29,2.56-8.51,5.24-12.83,7.77-3.42,2.01-7.76,4.38-11.88,3.5-2.69-.57-5.98-2.47-5.92-5.6.04-1.98,1.23-3.75,2.36-5.29,1.52-2.07,3.23-4.01,4.86-6,6.86-8.4,13.72-16.8,20.58-25.2,13.79-16.88,27.57-33.77,41.36-50.65,13.79-16.88,27.57-33.77,41.36-50.65,6.34-7.76,13.11-15.34,18.68-23.68,4.9-7.34,8.57-15.72,8.54-24.68-.02-8.38-3.24-16.57-10.07-21.66s-15.66-5.71-23.75-4.9c-9.09.92-18.09,3.25-26.88,5.67s-17.92,5.41-26.67,8.71c-17.71,6.69-34.84,14.87-51.37,24.09-16.59,9.26-32.6,19.54-48.17,30.42-7.75,5.42-15.39,10.98-22.95,16.66-3.69,2.77-7.49,5.48-11,8.48s-6.41,6.35-7.56,10.68c-1.92,7.24,4.41,17.27,12.7,14.44,3.63-1.24,2.07-7.04-1.6-5.79h0Z"/><path class="cls-2" d="m568.58,41.99c1.69,20.98,3.38,41.96,5.07,62.93,1.69,20.98,3.38,41.96,5.07,62.93l5.07,62.93c1.61,20,3.24,40,5.93,59.89s6.37,39.12,12.23,58.04c.73,2.34,1.49,4.67,2.27,7,1.23,3.64,7.03,2.08,5.79-1.6-6.34-18.66-10.5-37.98-13.42-57.45-2.94-19.58-4.64-39.33-6.24-59.05-1.69-20.76-3.35-41.52-5.02-62.28l-5.05-62.62c-1.69-20.98-3.38-41.96-5.07-62.93l-.63-7.79c-.13-1.62-1.29-3-3-3-1.52,0-3.13,1.38-3,3h0Z"/><path class="cls-2" d="m858.24,254.57c3.08,0,6.31-1.34,8.49-3.51s3.65-5.5,3.51-8.49c-.29-6.5-5.27-12-12-12-3.08,0-6.31,1.34-8.49,3.51s-3.65,5.5-3.51,8.49c.29,6.5,5.27,12,12,12h0Z"/></g></svg>