<?xml version="1.0" encoding="UTF-8"?><svg id="Layer_2" xmlns="http://www.w3.org/2000/svg" viewBox="0 0 867.73 473.78"><defs><style>.cls-1{fill:#fff;stroke-width:0px;}</style></defs><g id="Layer_1-2"><path class="cls-1" d="m209.09,95.42c-9.54-10.27-23.67-14.84-37.46-14.67-15.54.19-30.24,6.52-43.2,14.69-12.8,8.08-24.76,17.77-35.92,27.98-10.84,9.91-20.86,20.69-29.81,32.34-17.31,22.53-31.02,49.37-34.95,77.77-1.64,11.86-1.12,25.13,5.03,35.74,2.97,5.12,7.39,9.39,12.83,11.79,7.36,3.25,15.44,2.99,23.19,1.43,8.29-1.66,16.4-4.55,24.34-7.41,8.06-2.9,16-6.12,23.85-9.53,15.9-6.9,31.41-14.68,46.82-22.63,3.82-1.97,7.64-3.95,11.45-5.93l-3.64-4.71c-20.21,16.49-39.41,34.22-57.45,53.06-18.13,18.94-35.08,39-50.79,59.99-15.63,20.89-29.98,42.72-42.94,65.36-3.22,5.63-6.36,11.31-9.41,17.04s-5.99,10.95-8.28,16.73c-2.1,5.3-3.51,11.23-2.31,16.91,1.14,5.38,5.14,9.78,10.35,11.48,11.63,3.8,23.96-5.08,33.31-10.76,12.7-7.72,25.35-15.52,37.95-23.4,25.44-15.92,50.67-32.18,75.67-48.77,24.89-16.51,49.56-33.36,74-50.53,11.35-7.97,22.83-15.83,33.77-24.37,9.85-7.68,19.13-16.22,26.27-26.53,7.76-11.2,11.83-24.19,14.15-37.51,2.52-14.47,3.87-29.18,5.62-43.76,1.82-15.14,3.65-30.28,5.47-45.42.91-7.57,1.82-15.14,2.74-22.71.72-5.98,2.26-12.3.07-18.15-1.56-4.16-5.27-8.13-10.09-6.15-2.49,1.02-2.89,3.87-.72,5.48,9.16,6.81,6.73,21,4.62,30.54-1.6,7.24-3.51,14.39-4.99,21.66-1.6,7.87-2.95,15.79-4.08,23.73-4.54,31.91-5.64,64.18-5.28,96.38.18,16.18.71,32.34,1.34,48.51.28,7.14.21,14.41,1.09,21.51.67,5.37,1.88,11.05,5.02,15.57s7.82,7.33,13.29,7.06,10.03-3.75,13.27-8.08c3.42-4.57,5.63-10.05,7.23-15.5,2.35-8.01,4.59-16.06,6.88-24.08,9.23-32.31,18.46-64.63,27.69-96.94,1.13-3.97,2.27-7.94,3.4-11.9.97-3.39-3.63-5.06-5.48-2.31-12.85,19.11-11.01,43.56-10.35,65.47.8,26.76,1.65,53.52,2.52,80.28.21,6.47.43,12.94.64,19.41.18,5.22-.18,10.83,1.85,15.76,1.67,4.06,5.35,7.48,10.06,6.2,5.09-1.38,6.94-6.88,8.77-11.21,10.43-24.67,20.86-49.34,31.29-74.01,11.69-27.65,23.38-55.3,35.08-82.95.64-1.5.44-3.2-1.08-4.1-1.25-.75-3.47-.41-4.1,1.08-19.72,46.63-39.43,93.26-59.15,139.88-2.52,5.96-5.04,11.93-7.57,17.89-.77,1.81-3.18,9.61-6.35,7.23-1.33-1-1.84-3.28-2.17-4.79-.52-2.43-.43-4.98-.51-7.45-.21-6.18-.41-12.35-.62-18.53-.83-25.29-1.64-50.58-2.4-75.87-.38-12.65-1.19-25.39-.46-38.03.68-11.7,3.09-23.37,9.72-33.23l-5.48-2.31c-8.99,31.46-17.98,62.92-26.97,94.39-2.27,7.94-4.53,15.87-6.8,23.81-1.96,6.86-3.51,14.02-6.25,20.62-1.85,4.47-4.53,9.53-8.85,12.06-3.96,2.31-8.74,1.2-11.56-2.34-3.1-3.89-4.2-9.38-4.72-14.21-.75-7.01-.72-14.16-.99-21.2-.61-15.74-1.12-31.48-1.3-47.23-.36-31.5.56-63.15,4.94-94.38,2.12-15.11,5.38-29.88,8.84-44.73,2.42-10.37,4.67-23.24-1.36-32.85-1.5-2.39-3.43-4.3-5.68-5.97l-.72,5.48c1.46-.6,1.95.29,2.6,1.72.86,1.89,1.15,4.09,1.06,6.15-.33,7.02-1.66,14.13-2.5,21.12-1.77,14.7-3.54,29.41-5.31,44.11-1.73,14.37-3.4,28.75-5.2,43.12-1.63,12.99-3.7,26.36-9.36,38.29-10.71,22.59-32.6,36.96-52.35,50.96-23.44,16.61-47.08,32.92-70.93,48.93-23.73,15.93-47.67,31.55-71.8,46.87-12.19,7.74-24.42,15.39-36.7,22.97-6.08,3.75-12.17,7.48-18.28,11.2-5.3,3.23-10.55,6.82-16.29,9.24-4.33,1.83-9.9,3.53-14.49,1.58-4.84-2.06-6.19-7.25-5.65-12.05.63-5.6,3.21-10.8,5.75-15.74,2.85-5.55,5.78-11.06,8.8-16.53,12.05-21.86,25.4-43,39.93-63.3,14.6-20.39,30.42-39.91,47.33-58.44,16.91-18.53,34.91-36.07,53.88-52.48,4.63-4,9.31-7.93,14.05-11.8,2.75-2.24-.75-6.21-3.64-4.71-29.13,15.13-58.43,30.36-89.71,40.58-12.5,4.09-29.19,9.76-40.22-.64-8.12-7.65-9.72-20.07-9.26-30.66.56-12.87,4.44-25.84,9.12-37.77,5-12.76,11.75-24.83,19.55-36.08,15.76-22.73,36.11-42.32,58.3-58.73,12.11-8.95,25.27-17.13,40.14-20.44,12.56-2.8,26.6-1.45,37.59,5.57,2.64,1.69,4.98,3.71,7.11,6,2.63,2.84,6.87-1.41,4.24-4.24h0Z"/><path class="cls-1" d="m364.05,206.25c-.07.58.1-.32.11-.36.07-.28.17-.55.26-.83.16-.5-.05.07.08-.22.1-.22.2-.44.3-.65.46-.96.92-1.91,1.36-2.87s1.04-1.8,1.65-2.65c.68-.95,1.2-1.97,1.8-2.97.13-.23.34-.48.04-.14.16-.18.32-.34.5-.5-.28.26-.25.19.05.02.1-.06.2-.11.3-.16-.34.13-.4.16-.19.09.41-.08.81-.24,1.23-.32.17-.03.9-.12.15-.03.2-.02.4-.05.6-.07.93-.09,1.85-.23,2.78-.26.22,0,.43-.01.65,0,.24,0,.78.19.22,0,.09.03.86.28.24,0,.24.1.45.25.66.4,1.29.9,3.39.28,4.1-1.08.81-1.54.3-3.14-1.08-4.1-2.23-1.57-4.92-1.23-7.46-.97s-5.31.72-7.08,2.84c-.93,1.11-1.48,2.42-2.28,3.62-.69,1.04-1.48,1.99-2.01,3.12-1.25,2.64-2.63,5.16-2.99,8.09-.2,1.56,1.52,3.07,3,3,1.79-.08,2.79-1.33,3-3h0Z"/><path class="cls-1" d="m483.88,112.88c-2.5.37-4.39-3.04-4.69-5.27-.46-3.35,1.88-6.45,4.1-8.68,2.95-2.97,6.45-5.41,9.79-7.91,3.82-2.86,7.67-5.66,11.57-8.42,15.1-10.68,30.77-20.57,46.9-29.63,32.35-18.15,66.77-33.35,102.33-44.01,8.39-2.51,17.67-4.58,26.13-1.19,3.19,1.27,6.31,3.38,8.29,6.23,2.34,3.38,3.02,7.41,2.45,11.45-.63,4.47-2.5,8.73-4.54,12.72s-4.42,8.15-6.74,12.16c-4.76,8.2-9.81,16.23-15.1,24.09-21.1,31.37-45.9,60.03-71.46,87.82-6.31,6.86-12.68,13.68-19.06,20.47-5.52,5.87-11.77,13.44-11.68,21.98s7.8,14.33,16.08,14.29c9.24-.04,17.08-6.37,24.44-11.19,30.85-20.21,62.51-40.1,97.2-53.07,16.89-6.31,34.5-10.98,52.46-12.86,9.42-.99,19.4-1.82,28.64.74,7.04,1.95,13.91,6.36,16.91,13.26,3.54,8.14.49,17.5-3.4,24.9-3.88,7.37-8.94,14.2-14.33,20.53-10.99,12.88-24.09,23.78-38.03,33.32s-29,17.96-44.09,25.88c-16.63,8.74-33.47,17.33-51.24,23.54-9,3.14-18.24,5.67-27.65,7.2-8.24,1.34-17.25,2.44-25.52.74-7.23-1.49-13.42-5.6-15.19-13.1-1.78-7.53,1.01-15.44,5.55-21.44,4.96-6.56,11.83-11.43,18.45-16.16,1.32-.94,1.95-2.62,1.08-4.1-.76-1.3-2.78-2.02-4.1-1.08-7.43,5.31-14.89,10.74-20.44,18.11-5.05,6.69-7.89,15.17-6.78,23.58,1.14,8.7,6.7,15.33,14.8,18.51,8.07,3.17,17.28,2.72,25.73,1.82,19.75-2.1,38.58-8.63,56.61-16.72,17.15-7.69,33.91-16.51,50.26-25.79,15.38-8.72,30.33-18.3,43.93-29.63,13.37-11.12,25.68-24.19,34.52-39.25,4.72-8.04,8.4-17.42,7.09-26.89-1.21-8.74-7.14-15.84-14.79-19.93-8.74-4.67-18.89-5.28-28.61-4.79s-18.92,1.74-28.22,3.62c-18.63,3.75-36.63,10.14-53.93,17.94-17.45,7.86-34.18,17.23-50.49,27.2-8.22,5.03-16.35,10.21-24.42,15.47-3.98,2.59-7.93,5.22-11.91,7.8s-8.1,5.18-12.78,5.76c-3.23.4-7.01-.24-9.43-2.57-2.6-2.52-2.8-6.07-1.8-9.38,2.52-8.41,10.11-14.81,15.9-21.01,13.34-14.27,26.56-28.67,39.31-43.48,12.82-14.89,25.16-30.2,36.64-46.15,11.3-15.7,22.16-32.09,30.93-49.36,4.33-8.53,7.73-18.61,3.24-27.78-3.67-7.51-11.97-11.81-19.97-12.86-10.09-1.32-20.08,2.02-29.55,5.1-9.16,2.98-18.24,6.21-27.22,9.68-17.94,6.94-35.52,14.82-52.62,23.63-17.13,8.82-33.78,18.56-49.85,29.18-8.04,5.31-15.93,10.84-23.66,16.57-3.71,2.75-7.51,5.45-10.99,8.49-3.22,2.81-6.13,6.27-7.29,10.46-2.1,7.54,3.57,16.49,11.87,15.25,1.6-.24,2.49-2.26,2.1-3.69-.47-1.72-2.08-2.34-3.69-2.1h0Z"/><path class="cls-1" d="m607.7,344.35l-3.25,6.24,5.48.72c-8.06-41.9-14.73-84.06-19.94-126.41-5.21-42.4-9-84.98-11.35-127.63-1.31-23.89-2.17-47.8-2.58-71.72-.07-3.86-6.07-3.87-6,0,.37,21.46,1.1,42.92,2.19,64.36s2.54,42.65,4.35,63.93c1.82,21.39,4,42.75,6.54,64.07,2.54,21.26,5.42,42.49,8.67,63.65,3.25,21.22,6.86,42.38,10.83,63.48.49,2.62.99,5.25,1.5,7.87s4.33,2.93,5.48.72l3.25-6.24c1.78-3.42-3.39-6.46-5.18-3.03h0Z"/><path class="cls-1" d="m855.72,251.74c3.08,0,6.31-1.34,8.49-3.51s3.65-5.5,3.51-8.49c-.29-6.5-5.27-12-12-12-3.08,0-6.31,1.34-8.49,3.51s-3.65,5.5-3.51,8.49c.29,6.5,5.27,12,12,12h0Z"/></g></svg>