<?xml version="1.0" encoding="UTF-8"?><svg id="Layer_2" xmlns="http://www.w3.org/2000/svg" viewBox="0 0 317.89 398.86"><g id="Layer_1-2"><path d="m207.47,11.88C198.01,1.21,182.66-1.67,169.12.86c-15.57,2.91-29.38,12.18-42.09,21.18-24.24,17.16-45.94,37.86-64.19,61.3-9.17,11.78-17.51,24.18-24.87,37.17-7.21,12.74-14.54,26.29-17.46,40.77-1.43,7.08-1.8,14.53.16,21.55,1.92,6.9,6.03,12.87,11.71,17.2,12.12,9.23,28.22,9.65,42.49,6.24,8.19-1.96,16.07-5.05,23.88-8.17,7.66-3.06,15.26-6.29,22.75-9.76,14.9-6.89,29.38-14.76,42.92-24.07,3.29-2.26,6.51-4.61,9.67-7.03l-3.64-4.71c-31.95,26.2-61.22,55.64-87.25,87.74-26.06,32.12-48.94,66.8-68.05,103.48-2.34,4.48-4.62,8.99-6.84,13.53-2.41,4.93-5,9.88-6.78,15.08-2.99,8.77-2.18,20.7,7.28,25.26,4.86,2.35,10.04,1.08,14.63-1.28,5.24-2.7,10.25-5.97,15.32-8.99,10.09-6.02,20.15-12.08,30.17-18.2,39.89-24.35,79.27-49.54,118.11-75.53,39.05-26.14,77.55-53.09,115.47-80.84,4.64-3.39,9.27-6.8,13.89-10.22,1.31-.97,1.94-2.59,1.08-4.1-.74-1.29-2.81-2.04-4.1-1.08-36.97,27.35-74.5,53.94-112.57,79.75s-76.24,50.56-115.11,74.67c-19.54,12.12-39.21,24.03-59,35.75-3.94,2.33-9.23,6.6-14.12,5.15-3.7-1.1-5.95-4.96-6.6-8.57-.9-4.98,1.14-10.25,3.16-14.71s4.4-9.25,6.69-13.83c17.98-35.92,39.52-70.1,64.22-101.78,24.8-31.8,52.72-61.17,83.28-87.48,3.75-3.23,7.54-6.4,11.36-9.54,2.6-2.14-.93-6.79-3.64-4.71-24.79,19.01-53.41,32.73-82.58,43.62-13.85,5.17-29.09,9.36-43.6,4.3-5.77-2.01-11.25-5.62-14.71-10.73-3.72-5.5-5.08-11.96-4.84-18.53.52-14.1,7.22-27.4,13.68-39.63,6.6-12.5,14.1-24.52,22.4-35.96,16.56-22.83,36.45-43.32,58.74-60.6,11.43-8.86,23.65-17.7,36.91-23.6,12.16-5.4,26.91-7.46,38.98-.64,2.73,1.54,5.09,3.49,7.17,5.83,2.57,2.9,6.8-1.36,4.24-4.24h0Z" stroke-width="0"/></g></svg>