<svg version="1.1" id="Layer_1" xmlns="http://www.w3.org/2000/svg" xmlns:xlink="http://www.w3.org/1999/xlink" x="0px" y="0px"
	 width="100%" viewBox="0 0 480 448" enable-background="new 0 0 480 448" xml:space="preserve">
<path fill="#000000" opacity="1.000000" stroke="none" 
	d="
M370.166931,332.084412 
	C365.472015,340.759094 361.048981,349.164642 356.352539,357.414551 
	C354.166443,361.254700 352.032196,365.793579 346.343414,364.845154 
	C342.420166,364.191101 339.552948,359.180420 339.869232,353.066406 
	C340.505035,340.775208 341.547119,328.505585 342.331879,316.221344 
	C343.249298,301.861145 344.071014,287.494843 344.040710,272.949554 
	C338.103607,288.085815 332.189911,303.231323 326.216095,318.353058 
	C324.257111,323.311890 322.222931,328.269989 318.877136,332.496368 
	C315.396759,336.892761 311.030273,340.080902 305.151733,338.932068 
	C299.115784,337.752533 296.016357,333.312805 294.560608,327.540710 
	C292.898468,320.950287 293.487335,314.255402 293.868683,307.644287 
	C294.825806,291.051727 296.182343,274.482239 297.436615,257.101257 
	C292.602692,263.085632 287.977631,268.506439 282.326233,272.890778 
	C266.184235,285.413666 247.992310,294.590881 230.312607,304.575928 
	C183.013611,331.289368 134.751236,356.168945 85.842934,379.797272 
	C80.752548,382.256531 75.572746,384.522797 69.670998,384.376648 
	C60.361012,384.146057 54.772846,377.236847 56.446465,367.969116 
	C57.452591,362.397675 60.322968,357.696930 63.293453,353.090607 
	C76.497765,332.614777 91.134972,313.216675 107.268494,294.945068 
	C118.525543,282.196198 130.271942,269.942505 142.782120,258.407990 
	C155.150681,247.004059 168.105362,236.312012 181.305817,225.778839 
	C168.641373,230.003845 156.121536,234.635040 143.178528,237.876694 
	C135.285934,239.853409 127.406258,242.133820 119.196716,242.309113 
	C101.678108,242.683197 90.793945,230.365311 92.218895,212.842743 
	C94.292450,187.344498 106.389984,166.585739 122.682060,148.012070 
	C141.014206,127.112656 162.694641,110.329056 188.342468,99.198410 
	C204.266098,92.287872 220.246414,91.418510 235.681671,100.997421 
	C238.544815,102.774254 240.950562,105.077423 243.068344,107.670158 
	C244.372818,109.267159 244.763748,111.034996 242.898041,112.483490 
	C241.211807,113.792625 239.803070,112.897163 238.549149,111.573212 
	C225.952026,98.272598 210.239761,96.890617 194.839050,103.462227 
	C153.269867,121.200142 120.634140,148.954819 102.972069,191.805908 
	C98.938148,201.592880 96.668625,211.844742 99.312035,222.520004 
	C101.797302,232.556671 110.154884,237.847595 120.439293,236.342712 
	C146.709427,232.498657 171.149597,222.738144 195.691101,213.284851 
	C198.022034,212.386963 200.335327,211.443405 202.661667,210.533447 
	C204.741516,209.719925 206.907425,208.854736 208.251526,211.580917 
	C209.521667,214.157089 207.401688,215.158417 205.778168,216.253860 
	C192.375107,225.297623 179.378845,234.887939 166.982071,245.271088 
	C127.867950,278.031921 94.291374,315.676086 66.985199,358.838013 
	C65.193886,361.669434 63.692036,364.654907 62.781590,367.871674 
	C60.804520,374.856964 65.090294,379.350677 72.232689,377.934174 
	C82.724945,375.853271 91.630745,370.039612 101.025925,365.478271 
	C129.048203,351.873535 156.775620,337.677521 184.215393,322.922089 
	C212.517380,307.703033 240.719910,292.308197 268.210907,275.655304 
	C284.377563,265.862244 296.470123,252.629517 300.277496,233.601120 
	C302.784576,221.071060 304.356720,208.354019 307.234528,195.870682 
	C311.044647,179.343170 316.853088,163.343506 319.998535,146.630630 
	C320.717010,142.813019 320.202698,139.783661 318.033813,136.805832 
	C316.727356,135.012024 315.151764,132.931290 317.625549,131.206573 
	C319.920990,129.606171 322.506836,130.228729 324.377594,132.354156 
	C326.579193,134.855438 327.080109,138.006775 327.177277,141.216003 
	C327.329498,146.243591 326.852509,151.258392 325.298920,156.011948 
	C318.150360,177.884293 314.863373,200.667419 309.293732,222.904785 
	C303.715759,245.175507 302.901886,267.954651 301.262726,290.661438 
	C300.699615,298.462006 300.284973,306.275940 299.560516,314.061279 
	C299.136200,318.621368 299.421417,323.060577 300.797424,327.383026 
	C302.681091,333.300110 307.882324,334.652283 312.464874,330.425110 
	C315.199799,327.902222 317.031281,324.676331 318.381287,321.249146 
	C327.901428,297.080750 337.582245,272.971619 346.707611,248.654373 
	C349.252625,241.872391 349.726196,234.333206 353.421570,227.862640 
	C354.410706,226.130630 355.390259,224.380676 356.539551,222.755920 
	C357.781830,220.999725 359.171875,218.795441 361.736053,220.155380 
	C364.269257,221.498886 363.319427,223.840302 362.528107,225.885818 
	C360.966431,229.922684 359.620850,234.071854 357.709778,237.939301 
	C352.539459,248.402222 351.979614,259.667542 351.297729,270.984467 
	C350.166962,289.751434 348.768494,308.502106 347.581238,327.265869 
	C347.024414,336.066315 346.665344,344.879944 346.294434,353.690826 
	C346.228210,355.263855 345.977173,357.043701 347.625122,358.157654 
	C350.052948,357.846069 350.338593,355.740875 351.153381,354.237000 
	C371.467255,316.740692 391.742645,279.223511 412.032288,241.714066 
	C412.586212,240.690094 413.141052,239.648895 413.840668,238.725739 
	C414.839417,237.407791 416.151520,236.797424 417.761444,237.689301 
	C419.387329,238.590012 419.590088,240.089905 418.907288,241.566589 
	C417.650330,244.284943 416.228088,246.930115 414.802307,249.566635 
	C399.985443,276.966064 385.154144,304.357727 370.166931,332.084412 
z"/>
</svg>